DBRep_DrawableShape

CASCADE Topology V1, (c) Matra-Datavision
Locations 1
1
              1               0               0               0 
              0               1               0               0 
              0               0               1               0 
Curve2ds 4
1 0 -3.1415926535897931 1 0 
1 0 3.1415926535897931 1 0 
1 6.2831853071795862 -0 0 1 
1 0 -0 0 1 
Curves 2
2 0 0 2.4492127076447545e-16 0 0 1 1 0 -0 -0 1 0 8
2 10 -2.4492127076447545e-15 0 -2.4492127076447545e-16 -1 0 1 -2.4492127076447545e-16 0 0 0 1 2
Polygon3D 0
PolygonOnTriangulations 0
Surfaces 1
5 0 0 0 0 0 1 1 0 -0 -0 1 0 10 2
Triangulations 0

TShapes 7
Ve
1e-07
8 -1.9593701661158e-15 2.44921270764475e-16
0 0

0101101
*
Ed
 1e-07 1 1 0
1  1 0 0 6.28318530717959
3  1 2CN 1 0 0 6.28318530717959
0

0101000
+7 0 -7 0 *
Ed
 1e-07 1 1 0
1  2 0 -3.14159265358979 3.14159265358979
3  3 4CN 1 0 -3.14159265358979 3.14159265358979
0

0101000
+7 0 -7 0 *
Wi

0101000
-6 0 +5 0 +6 0 -5 0 *
Fa
0  1e-07 1 0

0101000
+4 0 *
Sh

0101100
+3 0 *
So

1100100
+2 0 *

+1 1 